<?xml version="1.0" encoding="UTF-8" standalone="no"?>
<!-- Created with Inkscape (http://www.inkscape.org/) -->

<svg
   width="75mm"
   height="75mm"
   viewBox="0 0 74.999999 74.999999"
   version="1.1"
   id="svg1"
   xml:space="preserve"
   inkscape:version="1.4 (e7c3feb100, 2024-10-09)"
   sodipodi:docname="fabric.svg"
   xmlns:inkscape="http://www.inkscape.org/namespaces/inkscape"
   xmlns:sodipodi="http://sodipodi.sourceforge.net/DTD/sodipodi-0.dtd"
   xmlns="http://www.w3.org/2000/svg"
   xmlns:svg="http://www.w3.org/2000/svg"><sodipodi:namedview
     id="namedview1"
     pagecolor="#000000"
     bordercolor="#eeeeee"
     borderopacity="1"
     inkscape:showpageshadow="0"
     inkscape:pageopacity="0"
     inkscape:pagecheckerboard="0"
     inkscape:deskcolor="#d1d1d1"
     inkscape:document-units="mm"
     inkscape:zoom="3.910966"
     inkscape:cx="110.3308"
     inkscape:cy="157.63369"
     inkscape:window-width="1708"
     inkscape:window-height="1378"
     inkscape:window-x="0"
     inkscape:window-y="0"
     inkscape:window-maximized="1"
     inkscape:current-layer="layer2" /><defs
     id="defs1" /><g
     inkscape:groupmode="layer"
     id="layer2"
     inkscape:label="Layer 1"
     transform="matrix(0.99152872,0,0,0.99152872,-63.877721,-90.191778)"
     style="stroke-width:7.9375;stroke-dasharray:none"><g
       id="g3"
       style="stroke-width:8.00531527;stroke-dasharray:none"><path
         style="fill:none;stroke:#ffffff;stroke-width:8.00531527;stroke-linecap:round;stroke-linejoin:round;stroke-dasharray:none;stroke-opacity:1;paint-order:normal"
         d="m 98.890992,105.11772 c 27.781258,23.15104 0,0 27.781258,23.15104 z"
         id="path2"
         sodipodi:nodetypes="ccc" /><path
         style="fill:none;stroke:#ffffff;stroke-width:8.00531527;stroke-linecap:round;stroke-linejoin:round;stroke-dasharray:none;stroke-opacity:1;paint-order:normal"
         d="m 74.828875,128.13738 c 3.601494,-3.50123 24.062117,-23.01966 24.062117,-23.01966 -1.690605,-1.63733 -2.113256,-2.71112 0,-4.63021 l 4.762498,-4.497913 c 0,0 2.1381,-1.888542 4.49792,0 l 26.73595,21.396513 c 3.31308,2.45248 -1.081,6.04384 -2.59012,8.06497 -3.36869,4.34559 -3.33252,4.52727 -5.62499,2.81768 0,0 -6.12984,6.21803 -9.26041,9.26044 -1.56593,1.52183 -4.7625,4.49792 -4.7625,4.49792 l -4.49792,4.7625 -4.7625,4.63021 c -1.22988,1.19571 2.31708,2.31311 0,4.6302 l -4.497912,4.49792 c -2.472011,2.47201 -6.348543,2.56176 -9.260435,0 C 69.465456,142.80753 61.62715,140.97156 74.828875,128.13738 Z"
         id="path3"
         sodipodi:nodetypes="scccscccaccsssss" /></g></g></svg>
