<?xml version="1.0" encoding="UTF-8" standalone="no"?>
<svg
   width="94.032257mm"
   height="51.375107mm"
   version="1.1"
   viewBox="0 0 94.032255 51.375108"
   xml:space="preserve"
   id="svg1"
   sodipodi:docname="forge.svg"
   inkscape:version="1.4 (e7c3feb100, 2024-10-09)"
   xmlns:inkscape="http://www.inkscape.org/namespaces/inkscape"
   xmlns:sodipodi="http://sodipodi.sourceforge.net/DTD/sodipodi-0.dtd"
   xmlns="http://www.w3.org/2000/svg"
   xmlns:svg="http://www.w3.org/2000/svg"><defs
     id="defs1" /><sodipodi:namedview
     id="namedview1"
     pagecolor="#000000"
     bordercolor="#eeeeee"
     borderopacity="0"
     inkscape:showpageshadow="0"
     inkscape:pageopacity="0"
     inkscape:pagecheckerboard="0"
     inkscape:deskcolor="#d1d1d1"
     inkscape:document-units="mm"
     inkscape:zoom="1.139705"
     inkscape:cx="289.1099"
     inkscape:cy="150.91624"
     inkscape:window-width="1708"
     inkscape:window-height="841"
     inkscape:window-x="0"
     inkscape:window-y="0"
     inkscape:window-maximized="1"
     inkscape:current-layer="svg1" /><g
     transform="matrix(0.65181327,0,0,0.65181327,-6.4911077,-54.402015)"
     id="g1"
     style="stroke-width:12.1776;stroke-dasharray:none"><path
       d="m 56.44043,151.3975 v -4.7956 c 0,-3.36545 9.43363,-8.19696 14.017362,-10.09904 4.583734,-1.9021 5.069171,-3.80748 5.618735,-6.92758 0.473254,-2.68673 -0.501603,-5.72056 -2.537576,-7.89721 -2.379309,-2.54372 -3.869825,-2.97987 -11.308389,-3.30935 -9.020985,-0.39954 -12.361429,-1.04921 -17.014829,-3.30867 -6.001992,-2.91439 -14.972159,-9.21747 -25.809847,-18.135745 l -3.359646,-2.764718 20.61072,-0.06103 c 22.452431,-0.06647 28.876983,-0.438025 30.024702,-1.139228 1.290179,-0.788291 2.993091,-3.407969 2.993091,-3.407969 h 78.457577 v 5.435278 c -0.15792,1.65e-4 -14.2094,3.177269 -15.8698,3.66189 -13.86195,4.045252 -23.24378,11.494202 -26.49044,21.033212 -0.92826,2.72755 -1.16066,6.47045 -0.55036,8.86637 0.51292,2.01384 1.60778,4.33018 2.6452,5.59614 1.49899,1.8293 6.47599,2.59135 10.42503,3.99648 3.94906,1.40512 8.33629,4.34213 8.33629,8.33324 v 9.71857 H 56.442296 Z"
       stop-color="#000000"
       style="font-variation-settings:normal;fill:none;fill-opacity:1;stroke:#ffffff;stroke-width:12.1776;stroke-linecap:round;stroke-linejoin:round;stroke-dasharray:none;stroke-opacity:1"
       id="path1"
       inkscape:label="path1" /></g></svg>
