<?xml version="1.0" encoding="UTF-8" standalone="no"?>
<!-- Created with Inkscape (http://www.inkscape.org/) -->

<svg
   width="75mm"
   height="75mm"
   viewBox="0 0 75 75"
   version="1.1"
   id="svg1"
   xml:space="preserve"
   inkscape:version="1.4 (e7c3feb100, 2024-10-09)"
   sodipodi:docname="neoforge.svg"
   xmlns:inkscape="http://www.inkscape.org/namespaces/inkscape"
   xmlns:sodipodi="http://sodipodi.sourceforge.net/DTD/sodipodi-0.dtd"
   xmlns="http://www.w3.org/2000/svg"
   xmlns:svg="http://www.w3.org/2000/svg"><sodipodi:namedview
     id="namedview1"
     pagecolor="#000000"
     bordercolor="#eeeeee"
     borderopacity="1"
     inkscape:showpageshadow="0"
     inkscape:pageopacity="0"
     inkscape:pagecheckerboard="0"
     inkscape:deskcolor="#d1d1d1"
     inkscape:document-units="mm"
     inkscape:zoom="1.4085194"
     inkscape:cx="144.47795"
     inkscape:cy="311.31981"
     inkscape:window-width="1708"
     inkscape:window-height="1378"
     inkscape:window-x="0"
     inkscape:window-y="0"
     inkscape:window-maximized="1"
     inkscape:current-layer="layer1" /><defs
     id="defs1" /><g
     inkscape:label="Layer 1"
     inkscape:groupmode="layer"
     id="layer1"
     transform="translate(-127,-87.84167)"><path
       style="fill:#000000;stroke:#ffffff;stroke-width:7.20332;stroke-linecap:round;stroke-linejoin:round;stroke-dasharray:none;stroke-opacity:1"
       d="m 160.77798,158.67854 c -13.81763,-2.26047 -26.03216,-12.7557 -30.03786,-26.21715 1.7202,-2.76432 6.74913,-2.43785 5.72275,-7.04612 1.46195,-6.28258 -3.25208,-11.47822 -3.85588,-17.52427 -0.94252,-4.77985 -1.32279,-9.649975 -1.51325,-14.511781 7.46081,3.067942 14.7304,6.841551 20.91724,12.075331 5.41326,-1.96135 12.30543,-4.09538 13.773,-10.413003 4.03692,-0.450006 2.90054,7.058563 6.82831,2.955102 1.71081,1.485409 1.01617,7.977201 5.94283,6.315871 4.95434,-4.14659 10.89075,-7.476175 17.01151,-10.02915 4.24945,-2.271651 1.12455,6.28107 1.46698,9.02768 -0.76586,5.61782 -2.04256,11.28218 -4.65302,16.32576 -0.98754,5.10474 0.71337,10.95409 5.78573,12.52698 -0.36445,3.93218 -3.12218,7.62772 -5.27463,11.0048 -7.27672,9.94821 -19.54497,16.9491 -32.11371,15.50995 z m 7.44378,-2.63354 c 11.53893,-2.05531 21.56846,-10.32788 26.37163,-20.93805 -0.89613,-3.29115 -5.53474,-4.51495 -4.2317,-8.71242 -1.50127,-8.36314 -7.52752,-15.72662 -15.37898,-18.94371 -1.7188,-3.12511 -4.89598,-5.96634 -8.10014,-3.87903 -0.42491,-2.48554 -0.49753,-4.597465 -2.68857,-1.22184 -5.5853,4.84447 -14.02861,5.02103 -18.89898,10.95383 -4.41471,4.62029 -7.02386,10.91478 -7.19024,17.30153 -8.26852,4.17013 0.55081,11.24867 4.0178,15.65039 6.76447,6.73467 16.44846,11.04792 26.09918,9.7893 z m -4.69788,-2.84266 c -6.33792,-1.53207 -5.43534,-12.22962 1.25833,-12.38477 5.70997,-0.64644 9.55359,7.1848 4.92461,10.93358 -1.61631,1.50871 -4.05826,2.24285 -6.18294,1.45119 z m 6.4836,-5.40507 c 2.96746,-3.42985 -7.65867,-6.71022 -2.25378,-2.97881 0.78219,0.96909 1.26122,2.1847 2.25378,2.97881 z m -16.55846,-14.12155 c -4.97253,-2.12892 -1.54341,-12.46357 3.56866,-8.4491 2.91351,2.54159 0.94914,10.2572 -3.56866,8.4491 z m 2.85112,-3.63572 c 2.61657,-3.52749 -4.38647,-0.49429 0,0 z m 18.46503,3.66518 c -5.05856,-2.17594 -1.48463,-12.69837 3.62767,-8.35368 2.63214,2.69895 0.95821,9.87405 -3.62767,8.35368 z m 2.80462,-3.66518 c 2.61659,-3.52768 -4.38666,-0.49406 0,0 z m -36.30581,-15.91298 c 1.93948,-3.62431 11.40283,-7.29153 3.58723,-10.81585 -3.22025,-1.75887 -8.46673,-5.608704 -10.8991,-5.22003 0.52662,6.88534 1.62214,13.87029 4.6404,20.14748 0.86086,-1.38865 1.63628,-2.83929 2.67147,-4.1116 z m 49.66552,2.73905 c 2.01644,-5.48699 5.04624,-15.60362 3.09672,-19.011249 -4.485,2.407209 -12.04435,5.204839 -13.63278,9.097329 3.86978,3.0634 7.5534,7.45862 10.33745,10.73718 l 0.19861,-0.82322 z"
       id="path1" /></g></svg>
